<svg width="130" height="43" viewBox="0 0 130 43" fill="none" xmlns="http://www.w3.org/2000/svg">
<g clip-path="url(#clip0)">
<path d="M119.648 -0.000104391H10.3582C9.95986 -0.000104391 9.56627 -0.000104391 9.16895 0.00204561C8.83635 0.00419561 8.50641 0.0104414 8.17062 0.0156981C7.44114 0.0241925 6.71337 0.0876976 5.99364 0.205661C5.27492 0.326193 4.57871 0.55343 3.92857 0.879686C3.27922 1.2087 2.68589 1.63623 2.17011 2.14675C1.65162 2.65583 1.21942 3.24426 0.890121 3.88942C0.559918 4.53329 0.330954 5.22325 0.211137 5.93549C0.090181 6.64682 0.0250935 7.36636 0.0164586 8.08764C0.00637702 8.41723 0.00531237 8.74792 0 9.07756V33.9254C0.00531237 34.2592 0.00637702 34.5825 0.0164586 34.9164C0.0250961 35.6377 0.0901836 36.3572 0.211137 37.0685C0.330623 37.7811 0.5596 38.4715 0.890121 39.1156C1.21927 39.7587 1.65153 40.3447 2.17011 40.851C2.68394 41.3638 3.27765 41.7916 3.92857 42.1181C4.57871 42.4452 5.27484 42.6738 5.99364 42.7962C6.71349 42.9132 7.44118 42.9767 8.17062 42.9862C8.50641 42.9936 8.83635 42.9977 9.16895 42.9977C9.56626 42.9999 9.95988 42.9999 10.3582 42.9999H119.648C120.038 42.9999 120.435 42.9999 120.825 42.9977C121.156 42.9977 121.496 42.9936 121.827 42.9862C122.555 42.9772 123.281 42.9137 124 42.7962C124.721 42.6729 125.419 42.4444 126.073 42.1181C126.723 41.7914 127.316 41.3636 127.829 40.851C128.347 40.3427 128.78 39.7571 129.113 39.1156C129.441 38.471 129.668 37.7807 129.786 37.0685C129.907 36.3571 129.974 35.6377 129.987 34.9164C129.992 34.5825 129.992 34.2592 129.992 33.9254C130 33.5348 130 33.1464 130 32.7496V10.2512C130 9.85756 130 9.46703 129.992 9.07756C129.992 8.74792 129.992 8.41723 129.987 8.08759C129.974 7.36625 129.907 6.64687 129.786 5.93544C129.668 5.22362 129.441 4.53371 129.113 3.88937C128.442 2.59623 127.379 1.54362 126.073 0.87959C125.419 0.554131 124.721 0.326954 124 0.205565C123.281 0.0870811 122.555 0.023554 121.827 0.0155476C121.496 0.0103016 121.156 0.00400211 120.825 0.00190586C120.435 -0.000244141 120.038 -0.000244141 119.648 -0.000244141V-0.000104391Z" fill="#A6A6A6"/>
<path d="M9.17425 42.0592C8.84326 42.0592 8.52025 42.055 8.19185 42.0477C7.51155 42.0389 6.83283 41.9803 6.16127 41.8723C5.53507 41.7656 4.92845 41.5671 4.36143 41.2834C3.7996 41.0019 3.28717 40.6329 2.84376 40.1905C2.39394 39.7533 2.01944 39.2462 1.73511 38.6893C1.44764 38.1288 1.2487 37.528 1.14521 36.9078C1.03344 36.2414 0.972976 35.5676 0.964324 34.8922C0.957437 34.6654 0.94842 33.9106 0.94842 33.9106V9.07747C0.94842 9.07747 0.958023 8.3342 0.964378 8.11584C0.972663 7.44147 1.03278 6.76871 1.14421 6.10336C1.24789 5.4815 1.44699 4.87896 1.73461 4.31661C2.0179 3.76009 2.39032 3.2526 2.83743 2.81381C3.28404 2.37085 3.79811 1.99995 4.3609 1.71466C4.92662 1.43181 5.53209 1.23469 6.15702 1.12992C6.83079 1.02088 7.51186 0.961925 8.19453 0.953555L9.17478 0.94043H120.82L121.812 0.954082C122.488 0.962036 123.163 1.02046 123.831 1.12887C124.462 1.23495 125.074 1.43344 125.646 1.71781C126.773 2.29276 127.691 3.20241 128.27 4.31923C128.553 4.8777 128.749 5.47532 128.851 6.09182C128.964 6.76262 129.027 7.44067 129.04 8.12057C129.043 8.42501 129.043 8.75202 129.043 9.07747C129.052 9.4806 129.052 9.8643 129.052 10.2511V32.7495C129.052 33.14 129.052 33.5211 129.043 33.9053C129.043 34.2549 129.043 34.5751 129.039 34.9047C129.026 35.5725 128.964 36.2384 128.853 36.8972C128.752 37.5219 128.554 38.1274 128.266 38.6925C127.98 39.2433 127.608 39.7461 127.163 40.1821C126.719 40.6269 126.206 40.9981 125.643 41.2813C125.072 41.5673 124.461 41.7665 123.831 41.8723C123.159 41.9809 122.481 42.0395 121.8 42.0477C121.482 42.055 121.149 42.0592 120.825 42.0592L119.648 42.0613L9.17425 42.0592Z" fill="black"/>
<path d="M26.9083 21.8232C26.92 20.926 27.1608 20.0462 27.6084 19.2658C28.0561 18.4854 28.6959 17.8297 29.4684 17.3598C28.9776 16.6662 28.3302 16.0955 27.5776 15.6928C26.8249 15.2902 25.9877 15.0668 25.1325 15.0403C23.3082 14.8508 21.5397 16.1205 20.61 16.1205C19.6624 16.1205 18.2311 15.0591 16.6899 15.0905C15.6929 15.1223 14.7213 15.4092 13.8697 15.9231C13.0181 16.437 12.3156 17.1605 11.8306 18.0229C9.72954 21.6225 11.2967 26.9126 13.3094 29.8222C14.3163 31.247 15.4932 32.8384 17.033 32.782C18.5399 32.7202 19.1027 31.8312 20.9216 31.8312C22.7237 31.8312 23.2517 32.782 24.8228 32.7461C26.4397 32.7202 27.4585 31.315 28.4301 29.8768C29.1536 28.8616 29.7103 27.7396 30.0797 26.5524C29.1403 26.1592 28.3386 25.5011 27.7747 24.6601C27.2107 23.8192 26.9094 22.8325 26.9083 21.8232Z" fill="white"/>
<path d="M23.9407 13.1267C24.8223 12.0794 25.2567 10.7333 25.1515 9.37427C23.8046 9.51425 22.5604 10.1513 21.6669 11.1583C21.23 11.6503 20.8954 12.2227 20.6822 12.8427C20.469 13.4628 20.3814 14.1183 20.4244 14.7718C21.0981 14.7787 21.7646 14.6342 22.3737 14.3492C22.9827 14.0643 23.5185 13.6463 23.9407 13.1267Z" fill="white"/>
<path d="M45.9561 29.1752H40.8139L39.579 32.7834H37.4009L42.2716 19.4341H44.5345L49.4051 32.7834H47.19L45.9561 29.1752ZM41.3465 27.5103H45.4225L43.4132 21.6544H43.3569L41.3465 27.5103Z" fill="white"/>
<path d="M59.9241 27.9176C59.9241 30.942 58.2882 32.8852 55.8194 32.8852C55.1941 32.9176 54.5721 32.775 54.0248 32.4739C53.4775 32.1727 53.0269 31.7252 52.7248 31.1824H52.678V36.0031H50.6591V23.0507H52.6134V24.6694H52.6505C52.9666 24.1293 53.4247 23.684 53.9762 23.3811C54.5277 23.0781 55.1519 22.9287 55.7823 22.9488C58.2786 22.9488 59.9241 24.9015 59.9241 27.9176ZM57.849 27.9176C57.849 25.9471 56.8199 24.6516 55.2497 24.6516C53.7071 24.6516 52.6696 25.9744 52.6696 27.9176C52.6696 29.8786 53.7071 31.1919 55.2497 31.1919C56.8199 31.1919 57.849 29.9059 57.849 27.9176Z" fill="white"/>
<path d="M70.7496 27.9175C70.7496 30.942 69.1137 32.8852 66.645 32.8852C66.0196 32.9176 65.3977 32.775 64.8503 32.4739C64.303 32.1727 63.8525 31.7252 63.5503 31.1824H63.5036V36.0031H61.4847V23.0506H63.4389V24.6694H63.476C63.7921 24.1293 64.2502 23.684 64.8017 23.3811C65.3532 23.0781 65.9774 22.9287 66.6078 22.9488C69.1042 22.9488 70.7496 24.9014 70.7496 27.9175ZM68.6745 27.9175C68.6745 25.9471 67.6454 24.6516 66.0753 24.6516C64.5327 24.6516 63.4951 25.9743 63.4951 27.9175C63.4951 29.8786 64.5327 31.1919 66.0753 31.1919C67.6454 31.1919 68.6745 29.9059 68.6745 27.9175H68.6745Z" fill="white"/>
<path d="M77.9044 29.0639C78.054 30.3877 79.3537 31.2569 81.1296 31.2569C82.8313 31.2569 84.0556 30.3877 84.0556 29.194C84.0556 28.1579 83.3172 27.5375 81.5688 27.1123L79.8205 26.6955C77.3432 26.1034 76.1932 24.957 76.1932 23.0968C76.1932 20.7935 78.2217 19.2114 81.102 19.2114C83.9527 19.2114 85.9069 20.7935 85.9727 23.0968H83.9346C83.8126 21.7646 82.6997 20.9604 81.0734 20.9604C79.447 20.9604 78.3341 21.774 78.3341 22.9582C78.3341 23.902 79.0449 24.4573 80.7837 24.8824L82.2701 25.2436C85.038 25.8913 86.188 26.9915 86.188 28.9441C86.188 31.4416 84.1776 33.0058 80.98 33.0058C77.9882 33.0058 75.9682 31.4784 75.8378 29.0638L77.9044 29.0639Z" fill="white"/>
<path d="M90.5452 20.7473V23.0506H92.4156V24.6326H90.5452V29.9982C90.5452 30.8317 90.9197 31.2202 91.7419 31.2202C91.964 31.2163 92.1856 31.2009 92.406 31.1739V32.7466C92.0364 32.8149 91.6607 32.8459 91.2847 32.8389C89.2933 32.8389 88.5167 32.0988 88.5167 30.2113V24.6326H87.0866V23.0506H88.5167V20.7473H90.5452Z" fill="white"/>
<path d="M93.4988 27.9175C93.4988 24.8552 95.3215 22.9309 98.1637 22.9309C101.015 22.9309 102.83 24.8552 102.83 27.9175C102.83 30.9882 101.025 32.904 98.1637 32.904C95.3034 32.904 93.4988 30.9881 93.4988 27.9175ZM100.772 27.9175C100.772 25.8168 99.7996 24.577 98.1637 24.577C96.5277 24.577 95.5559 25.8263 95.5559 27.9175C95.5559 30.0265 96.5277 31.2569 98.1637 31.2569C99.7996 31.2569 100.772 30.0265 100.772 27.9175H100.772Z" fill="white"/>
<path d="M104.494 23.0506H106.42V24.7071H106.466C106.597 24.1898 106.903 23.7325 107.334 23.4123C107.765 23.0921 108.294 22.9284 108.832 22.9487C109.065 22.9479 109.297 22.9729 109.524 23.0233V24.8919C109.23 24.8031 108.924 24.7623 108.617 24.7712C108.324 24.7594 108.031 24.8106 107.76 24.9212C107.488 25.0318 107.244 25.1992 107.044 25.4119C106.845 25.6247 106.694 25.8777 106.602 26.1536C106.51 26.4295 106.48 26.7218 106.513 27.0104V32.7833H104.494L104.494 23.0506Z" fill="white"/>
<path d="M118.832 29.9247C118.561 31.6915 116.822 32.904 114.597 32.904C111.736 32.904 109.96 31.007 109.96 27.9637C109.96 24.9108 111.745 22.9309 114.512 22.9309C117.234 22.9309 118.945 24.7807 118.945 27.7317V28.4161H111.998V28.5369C111.966 28.8951 112.011 29.2559 112.131 29.5954C112.251 29.9349 112.442 30.2454 112.692 30.5061C112.942 30.7669 113.246 30.9719 113.582 31.1077C113.919 31.2435 114.281 31.3069 114.644 31.2936C115.121 31.3379 115.6 31.2285 116.009 30.9819C116.418 30.7352 116.736 30.3645 116.915 29.9247L118.832 29.9247ZM112.007 27.0199H116.925C116.943 26.6978 116.894 26.3755 116.78 26.0732C116.666 25.7709 116.491 25.4952 116.264 25.2632C116.037 25.0313 115.765 24.8481 115.463 24.7254C115.162 24.6026 114.838 24.5428 114.512 24.5497C114.184 24.5478 113.858 24.6103 113.553 24.7336C113.249 24.857 112.973 25.0387 112.74 25.2684C112.507 25.498 112.322 25.771 112.197 26.0717C112.071 26.3723 112.007 26.6946 112.007 27.0199V27.0199Z" fill="white"/>
<path d="M41.0934 9.3857C41.5167 9.35564 41.9414 9.41891 42.337 9.57096C42.7325 9.723 43.0891 9.96001 43.3809 10.2649C43.6726 10.5698 43.8924 10.935 44.0243 11.3341C44.1562 11.7332 44.1969 12.1563 44.1435 12.5729C44.1435 14.6221 43.0243 15.8 41.0934 15.8H38.752V9.3857H41.0934ZM39.7588 14.8929H40.981C41.2834 14.9108 41.5861 14.8617 41.867 14.7493C42.1478 14.6368 42.3998 14.4638 42.6046 14.2428C42.8094 14.0218 42.9618 13.7584 43.0507 13.4718C43.1396 13.1852 43.1629 12.8826 43.1187 12.586C43.1597 12.2905 43.1341 11.9898 43.0438 11.7053C42.9535 11.4207 42.8007 11.1595 42.5964 10.9403C42.3921 10.7211 42.1413 10.5493 41.862 10.4372C41.5827 10.3252 41.2819 10.2756 40.981 10.2921H39.7588V14.8929Z" fill="white"/>
<path d="M45.2808 13.3776C45.2501 13.0595 45.2869 12.7385 45.3888 12.4353C45.4908 12.1321 45.6556 11.8533 45.8728 11.6168C46.09 11.3803 46.3548 11.1913 46.6501 11.0621C46.9455 10.9328 47.2648 10.866 47.5878 10.866C47.9107 10.866 48.2301 10.9328 48.5255 11.0621C48.8208 11.1913 49.0855 11.3803 49.3028 11.6168C49.52 11.8533 49.6848 12.1321 49.7868 12.4353C49.8887 12.7385 49.9255 13.0595 49.8947 13.3776C49.9261 13.696 49.8898 14.0174 49.7881 14.3211C49.6864 14.6248 49.5216 14.9042 49.3044 15.1411C49.0871 15.378 48.8221 15.5674 48.5265 15.697C48.2309 15.8265 47.9111 15.8935 47.5878 15.8935C47.2645 15.8935 46.9447 15.8265 46.6491 15.697C46.3535 15.5674 46.0885 15.378 45.8712 15.1411C45.654 14.9042 45.4892 14.6248 45.3875 14.3211C45.2858 14.0174 45.2495 13.696 45.2808 13.3776ZM48.9017 13.3776C48.9017 12.3283 48.4254 11.7147 47.5894 11.7147C46.7502 11.7147 46.2781 12.3283 46.2781 13.3776C46.2781 14.4353 46.7502 15.0441 47.5894 15.0441C48.4254 15.0441 48.9017 14.4311 48.9017 13.3776H48.9017Z" fill="white"/>
<path d="M56.0279 15.7999H55.0264L54.0153 12.2347H53.939L52.9321 15.7999H51.9402L50.5918 10.9592H51.571L52.4473 14.6529H52.5195L53.5252 10.9592H54.4514L55.4571 14.6529H55.5335L56.4056 10.9592H57.371L56.0279 15.7999Z" fill="white"/>
<path d="M58.5051 10.9593H59.4345V11.7283H59.5066C59.629 11.4521 59.8354 11.2206 60.0971 11.066C60.3588 10.9114 60.6627 10.8414 60.9664 10.8658C61.2045 10.8481 61.4435 10.8837 61.6657 10.9698C61.888 11.0559 62.0878 11.1903 62.2505 11.3633C62.4131 11.5362 62.5343 11.7431 62.6051 11.9686C62.6759 12.1942 62.6946 12.4326 62.6596 12.6663V15.7999H61.6942V12.9062C61.6942 12.1283 61.3526 11.7414 60.6386 11.7414C60.477 11.7339 60.3157 11.7612 60.1657 11.8212C60.0157 11.8812 59.8806 11.9726 59.7697 12.0891C59.6587 12.2056 59.5746 12.3445 59.5229 12.4962C59.4713 12.6479 59.4534 12.8089 59.4705 12.9681V15.7999H58.5051L58.5051 10.9593Z" fill="white"/>
<path d="M64.198 9.06958H65.1634V15.7999H64.198V9.06958Z" fill="white"/>
<path d="M66.5055 13.3774C66.4747 13.0593 66.5115 12.7383 66.6135 12.4351C66.7155 12.1318 66.8804 11.853 67.0976 11.6165C67.3148 11.3801 67.5796 11.1911 67.875 11.0618C68.1703 10.9325 68.4897 10.8657 68.8127 10.8657C69.1356 10.8657 69.455 10.9325 69.7504 11.0618C70.0457 11.1911 70.3105 11.3801 70.5278 11.6165C70.745 11.853 70.9099 12.1318 71.0118 12.4351C71.1138 12.7383 71.1506 13.0593 71.1199 13.3774C71.1512 13.6959 71.1148 14.0173 71.0131 14.321C70.9114 14.6247 70.7466 14.904 70.5293 15.1409C70.312 15.3779 70.0471 15.5672 69.7514 15.6968C69.4558 15.8264 69.136 15.8933 68.8127 15.8933C68.4893 15.8933 68.1696 15.8264 67.8739 15.6968C67.5783 15.5672 67.3133 15.3779 67.096 15.1409C66.8787 14.904 66.7139 14.6247 66.6122 14.321C66.5105 14.0173 66.4742 13.6959 66.5055 13.3774ZM70.1263 13.3774C70.1263 12.3281 69.65 11.7145 68.814 11.7145C67.9748 11.7145 67.5027 12.3281 67.5027 13.3774C67.5027 14.4351 67.9748 15.044 68.814 15.044C69.65 15.044 70.1263 14.4309 70.1263 13.3774H70.1263Z" fill="white"/>
<path d="M72.1362 14.4309C72.1362 13.5595 72.7919 13.0572 73.9557 12.9858L75.2808 12.9102V12.4924C75.2808 11.9811 74.9392 11.6924 74.2793 11.6924C73.7403 11.6924 73.3669 11.8882 73.2598 12.2305H72.3251C72.4238 11.399 73.2141 10.8657 74.3238 10.8657C75.5503 10.8657 76.242 11.4699 76.242 12.4924V15.7998H75.3126V15.1195H75.2362C75.0812 15.3635 74.8635 15.5625 74.6053 15.696C74.3472 15.8295 74.0578 15.8929 73.7669 15.8796C73.5615 15.9007 73.3539 15.879 73.1576 15.8159C72.9612 15.7528 72.7804 15.6497 72.6267 15.5132C72.4731 15.3767 72.3501 15.2099 72.2656 15.0234C72.1811 14.837 72.1371 14.6352 72.1362 14.4309ZM75.2808 14.0172V13.6125L74.0862 13.6881C73.4125 13.7327 73.107 13.9595 73.107 14.3862C73.107 14.8219 73.4889 15.0754 74.0141 15.0754C74.168 15.0908 74.3234 15.0755 74.4712 15.0302C74.6189 14.985 74.756 14.9108 74.8741 14.812C74.9923 14.7133 75.0892 14.5921 75.1591 14.4555C75.2289 14.319 75.2703 14.1699 75.2808 14.0172Z" fill="white"/>
<path d="M77.5108 13.3775C77.5108 11.8479 78.3055 10.8789 79.5414 10.8789C79.8471 10.865 80.1506 10.9375 80.4162 11.0878C80.6819 11.2382 80.8988 11.4603 81.0416 11.7282H81.1137V9.06958H82.0791V15.7999H81.154V15.0351H81.0776C80.9238 15.3011 80.6993 15.5205 80.4286 15.6693C80.1578 15.8182 79.851 15.8909 79.5414 15.8797C78.297 15.8797 77.5108 14.9107 77.5108 13.3775ZM78.5081 13.3775C78.5081 14.4042 78.9972 15.022 79.8152 15.022C80.6289 15.022 81.1318 14.3953 81.1318 13.3817C81.1318 12.3728 80.6236 11.7371 79.8152 11.7371C79.0025 11.7371 78.5081 12.3592 78.5081 13.3775H78.5081Z" fill="white"/>
<path d="M86.0735 13.3776C86.0427 13.0595 86.0795 12.7385 86.1814 12.4353C86.2834 12.1321 86.4482 11.8533 86.6654 11.6168C86.8827 11.3803 87.1474 11.1913 87.4427 11.0621C87.7381 10.9328 88.0575 10.866 88.3804 10.866C88.7034 10.866 89.0227 10.9328 89.3181 11.0621C89.6134 11.1913 89.8782 11.3803 90.0954 11.6168C90.3126 11.8533 90.4774 12.1321 90.5794 12.4353C90.6813 12.7385 90.7181 13.0595 90.6874 13.3776C90.7187 13.696 90.6824 14.0174 90.5807 14.3211C90.479 14.6248 90.3142 14.9042 90.097 15.1411C89.8797 15.378 89.6148 15.5674 89.3191 15.697C89.0235 15.8265 88.7037 15.8935 88.3804 15.8935C88.0571 15.8935 87.7373 15.8265 87.4417 15.697C87.1461 15.5674 86.8811 15.378 86.6638 15.1411C86.4466 14.9042 86.2818 14.6248 86.1801 14.3211C86.0785 14.0174 86.0421 13.696 86.0735 13.3776ZM89.6943 13.3776C89.6943 12.3283 89.218 11.7147 88.382 11.7147C87.5428 11.7147 87.0708 12.3283 87.0708 13.3776C87.0708 14.4353 87.5429 15.0441 88.382 15.0441C89.218 15.0441 89.6943 14.4311 89.6943 13.3776Z" fill="white"/>
<path d="M91.9827 10.9593H92.9121V11.7283H92.9842C93.1066 11.4521 93.313 11.2206 93.5747 11.066C93.8364 10.9114 94.1403 10.8414 94.4441 10.8658C94.6821 10.8481 94.9211 10.8837 95.1434 10.9698C95.3656 11.0559 95.5655 11.1903 95.7281 11.3633C95.8907 11.5362 96.0119 11.7431 96.0827 11.9686C96.1536 12.1942 96.1722 12.4326 96.1373 12.6663V15.7999H95.1718V12.9062C95.1718 12.1283 94.8302 11.7414 94.1162 11.7414C93.9546 11.7339 93.7933 11.7612 93.6433 11.8212C93.4933 11.8812 93.3582 11.9726 93.2473 12.0891C93.1364 12.2056 93.0522 12.3445 93.0005 12.4962C92.9489 12.6479 92.931 12.8089 92.9482 12.9681V15.7999H91.9827V10.9593Z" fill="white"/>
<path d="M101.592 9.75415V10.9814H102.652V11.7861H101.592V14.2751C101.592 14.7822 101.804 15.0042 102.284 15.0042C102.407 15.0038 102.53 14.9965 102.652 14.9822V15.7779C102.479 15.8086 102.303 15.8249 102.127 15.8267C101.054 15.8267 100.626 15.453 100.626 14.5197V11.786H99.8494V10.9813H100.626V9.75415H101.592Z" fill="white"/>
<path d="M103.971 9.06958H104.928V11.7371H105.004C105.133 11.4584 105.345 11.2255 105.612 11.0704C105.879 10.9152 106.187 10.8452 106.496 10.87C106.733 10.8573 106.969 10.8964 107.189 10.9846C107.409 11.0728 107.606 11.2079 107.767 11.3802C107.928 11.5526 108.049 11.758 108.12 11.9817C108.192 12.2055 108.212 12.442 108.181 12.6746V15.7999H107.214V12.9103C107.214 12.1371 106.85 11.7455 106.168 11.7455C106.002 11.7321 105.835 11.7546 105.679 11.8117C105.523 11.8687 105.381 11.9588 105.264 12.0757C105.147 12.1926 105.057 12.3334 105 12.4884C104.943 12.6433 104.922 12.8086 104.937 12.9727V15.7999H103.971L103.971 9.06958Z" fill="white"/>
<path d="M113.81 14.4929C113.679 14.9353 113.395 15.318 113.007 15.574C112.62 15.83 112.153 15.943 111.69 15.8933C111.368 15.9017 111.048 15.8406 110.752 15.7143C110.456 15.588 110.191 15.3994 109.976 15.1617C109.761 14.9239 109.601 14.6428 109.507 14.3377C109.412 14.0325 109.386 13.7108 109.43 13.3948C109.388 13.0778 109.414 12.7554 109.508 12.4493C109.602 12.1433 109.761 11.8608 109.975 11.621C110.189 11.3812 110.452 11.1897 110.748 11.0594C111.043 10.9291 111.363 10.8631 111.686 10.8658C113.047 10.8658 113.868 11.786 113.868 13.3061V13.6394H110.414V13.6929C110.399 13.8706 110.421 14.0494 110.48 14.2179C110.539 14.3864 110.633 14.5409 110.755 14.6714C110.878 14.802 111.027 14.9058 111.192 14.9761C111.358 15.0464 111.537 15.0817 111.717 15.0797C111.948 15.1071 112.182 15.066 112.389 14.9615C112.596 14.857 112.767 14.6939 112.881 14.4928L113.81 14.4929ZM110.414 12.9329H112.885C112.897 12.7704 112.875 12.6072 112.819 12.4538C112.764 12.3004 112.677 12.1601 112.563 12.042C112.45 11.9239 112.313 11.8306 112.161 11.7681C112.009 11.7055 111.845 11.6751 111.681 11.6789C111.514 11.6768 111.348 11.7078 111.193 11.7701C111.039 11.8324 110.898 11.9247 110.78 12.0416C110.662 12.1584 110.569 12.2975 110.506 12.4506C110.443 12.6037 110.412 12.7676 110.414 12.9329H110.414Z" fill="white"/>
</g>
<defs>
<clipPath id="clip0">
<rect width="130" height="43" fill="white"/>
</clipPath>
</defs>
</svg>
