<svg width="20" height="20" viewBox="0 0 20 20" fill="none" xmlns="http://www.w3.org/2000/svg">
<path d="M6.80002 0.400024C4.72002 0.400024 3.09166 1.93572 2.84846 3.91252C1.41006 4.51812 0.400024 5.94082 0.400024 7.60002C0.400024 9.80882 2.19122 11.6 4.40002 11.6C4.63402 11.6 4.86164 11.5767 5.08284 11.5344C5.70512 12.8773 6.63355 15.2915 6.77971 18.0641C6.82353 18.8955 7.51997 19.6 8.37815 19.6H11.6172C12.4799 19.6 13.1816 18.8899 13.2156 18.0485C13.3155 15.6381 13.8813 13.9486 14.4063 12.8672C14.8222 12.0105 15.1172 11.656 15.2485 11.5094C15.4916 11.5628 15.7411 11.6 16 11.6C17.988 11.6 19.6 9.98802 19.6 8.00002C19.6 6.35282 18.4878 4.97879 16.9766 4.55159C16.3622 2.60919 14.5456 1.20002 12.4 1.20002H12.3906C11.9602 1.20082 11.6941 1.66282 11.8813 2.05002C11.9325 2.15482 11.9795 2.2623 12.0219 2.3719C12.1611 2.7295 12.0381 3.15151 11.7125 3.35471C11.5757 3.43951 11.4276 3.47971 11.2828 3.47971C10.9612 3.47971 10.6584 3.28405 10.536 2.96565C10.3856 2.57365 9.36002 0.400024 6.80002 0.400024ZM10.8 11.7703C11.3735 12.1592 12.0549 12.4 12.8 12.4C12.8246 12.4 12.8474 12.3943 12.8719 12.3938C12.2895 13.6586 11.7205 15.4903 11.6172 17.9828C11.6172 17.9834 11.6172 17.9839 11.6172 17.9844C11.616 18.0134 11.625 18 11.6172 18H8.37815C8.36965 18 8.37991 18.0132 8.37815 17.9797C8.25806 15.7016 7.66371 13.6635 7.08596 12.161C7.49777 12.3083 7.93663 12.4 8.40002 12.4C8.67537 12.4 8.94063 12.3629 9.20002 12.3094V15.5203C9.19852 15.6263 9.21811 15.7316 9.25764 15.83C9.29717 15.9283 9.35586 16.0179 9.4303 16.0934C9.50473 16.1689 9.59343 16.2288 9.69123 16.2697C9.78904 16.3107 9.894 16.3317 10 16.3317C10.106 16.3317 10.211 16.3107 10.3088 16.2697C10.4066 16.2288 10.4953 16.1689 10.5698 16.0934C10.6442 16.0179 10.7029 15.9283 10.7424 15.83C10.7819 15.7316 10.8015 15.6263 10.8 15.5203V11.7703Z" fill="#6BCD5B"/>
</svg>
