<svg width="24" height="24" viewBox="0 0 24 24" fill="none" xmlns="http://www.w3.org/2000/svg">
<path d="M8.80002 2.40002C6.72002 2.40002 5.09166 3.93572 4.84846 5.91252C3.41006 6.51812 2.40002 7.94082 2.40002 9.60002C2.40002 11.8088 4.19122 13.6 6.40002 13.6C6.63402 13.6 6.86164 13.5767 7.08284 13.5344C7.70512 14.8773 8.63355 17.2915 8.77971 20.0641C8.82353 20.8955 9.51997 21.6 10.3781 21.6H13.6172C14.4799 21.6 15.1816 20.8899 15.2156 20.0485C15.3155 17.6381 15.8813 15.9486 16.4063 14.8672C16.8222 14.0105 17.1172 13.656 17.2485 13.5094C17.4916 13.5628 17.7411 13.6 18 13.6C19.988 13.6 21.6 11.988 21.6 10C21.6 8.35282 20.4878 6.97879 18.9766 6.55159C18.3622 4.60919 16.5456 3.20002 14.4 3.20002H14.3906C13.9602 3.20082 13.6941 3.66282 13.8813 4.05002C13.9325 4.15482 13.9795 4.2623 14.0219 4.3719C14.1611 4.7295 14.0381 5.15151 13.7125 5.35471C13.5757 5.43951 13.4276 5.47971 13.2828 5.47971C12.9612 5.47971 12.6584 5.28405 12.536 4.96565C12.3856 4.57365 11.36 2.40002 8.80002 2.40002ZM12.8 13.7703C13.3735 14.1592 14.0549 14.4 14.8 14.4C14.8246 14.4 14.8474 14.3943 14.8719 14.3938C14.2895 15.6586 13.7205 17.4903 13.6172 19.9828C13.6172 19.9834 13.6172 19.9839 13.6172 19.9844C13.616 20.0134 13.625 20 13.6172 20H10.3781C10.3696 20 10.3799 20.0132 10.3781 19.9797C10.2581 17.7016 9.66371 15.6635 9.08596 14.161C9.49777 14.3083 9.93663 14.4 10.4 14.4C10.6754 14.4 10.9406 14.3629 11.2 14.3094V17.5203C11.1985 17.6263 11.2181 17.7316 11.2576 17.83C11.2972 17.9283 11.3559 18.0179 11.4303 18.0934C11.5047 18.1689 11.5934 18.2288 11.6912 18.2697C11.789 18.3107 11.894 18.3317 12 18.3317C12.106 18.3317 12.211 18.3107 12.3088 18.2697C12.4066 18.2288 12.4953 18.1689 12.5698 18.0934C12.6442 18.0179 12.7029 17.9283 12.7424 17.83C12.7819 17.7316 12.8015 17.6263 12.8 17.5203V13.7703Z" fill="#6BCD5B"/>
</svg>
