<svg width="28" height="17" viewBox="0 0 28 17" fill="none" xmlns="http://www.w3.org/2000/svg">
<path d="M11.5166 3.14495C17.7417 3.14495 22.7881 8.78067 22.7881 8.78067C22.7881 8.78067 17.7417 14.4164 11.5166 14.4164C5.29159 14.4164 -1.10109 10.8009 0.245202 8.78067C1.5915 6.76039 5.29159 3.14495 11.5166 3.14495Z" fill="#3498DA"/>
<path d="M27.753 2.98821C27.753 2.98821 24.4996 7.43922 24.5351 8.78067C24.5706 10.1221 27.753 14.5731 27.753 14.5731C27.753 14.5731 21.0248 11.7771 21.1331 8.78067C21.2414 5.78424 27.753 2.98821 27.753 2.98821Z" fill="#3498DA"/>
<path d="M15.371 1.12934C15.371 1.12934 13.1048 6.7628 13.173 8.65436C13.2412 10.5459 15.0866 16.9479 15.0866 16.9479C15.0866 16.9479 4.74307 12.9682 4.74292 7.72512C4.74288 6.49845 6.9786 3.84198 7.84602 2.96534C10.6862 0.0949743 15.371 1.12934 15.371 1.12934Z" fill="#3498DA"/>
<circle cx="4.51174" cy="8.5237" r="1.29457" fill="white"/>
</svg>
