<svg width="24" height="24" viewBox="0 0 24 24" fill="none" xmlns="http://www.w3.org/2000/svg">
<path d="M16.364 3.19995C13.6 3.19995 12 5.59995 12 5.59995C12 5.59995 10.4 3.19995 7.63602 3.19995C4.74402 3.19995 2.40002 5.54395 2.40002 8.43595C2.40002 13.5088 8.33682 18.3608 11.0368 20.4776C11.0368 20.4776 11.4768 20.7999 12 20.7999C12.5232 20.7999 12.9632 20.4776 12.9632 20.4776C15.6632 18.3608 21.6 13.5088 21.6 8.43595C21.6 5.54395 19.256 3.19995 16.364 3.19995ZM11.444 16.2624L6.95122 8.90235C6.70962 8.50715 6.99442 7.99995 7.45762 7.99995H8.30322C8.60962 7.99995 8.89042 8.16875 9.03522 8.43835L11.736 13.48C11.8488 13.6912 12.152 13.6912 12.2648 13.48L14.9656 8.43835C15.1096 8.16875 15.3912 7.99995 15.6968 7.99995H16.5424C17.0056 7.99995 17.2904 8.50715 17.0488 8.90235L12.556 16.2624C12.3024 16.6783 11.6976 16.6783 11.444 16.2624Z" fill="#6BCD5B"/>
</svg>
