<svg width="20" height="18" viewBox="0 0 20 18" fill="none" xmlns="http://www.w3.org/2000/svg">
<path d="M14.364 0.199951C11.6 0.199951 10 2.59995 10 2.59995C10 2.59995 8.40002 0.199951 5.63602 0.199951C2.74402 0.199951 0.400024 2.54395 0.400024 5.43595C0.400024 10.5088 6.33682 15.3608 9.03682 17.4776C9.03682 17.4776 9.47682 17.7999 10 17.7999C10.5232 17.7999 10.9632 17.4776 10.9632 17.4776C13.6632 15.3608 19.6 10.5088 19.6 5.43595C19.6 2.54395 17.256 0.199951 14.364 0.199951ZM9.44402 13.2624L4.95122 5.90235C4.70962 5.50715 4.99442 4.99995 5.45762 4.99995H6.30322C6.60962 4.99995 6.89042 5.16875 7.03522 5.43835L9.73602 10.48C9.84882 10.6912 10.152 10.6912 10.2648 10.48L12.9656 5.43835C13.1096 5.16875 13.3912 4.99995 13.6968 4.99995H14.5424C15.0056 4.99995 15.2904 5.50715 15.0488 5.90235L10.556 13.2624C10.3024 13.6783 9.69762 13.6783 9.44402 13.2624Z" fill="#6BCD5B"/>
</svg>
