<svg width="18" height="18" viewBox="0 0 18 18" fill="none" xmlns="http://www.w3.org/2000/svg">
<path d="M12.6186 0H5.34433C2.41237 0 0 2.41237 0 5.34433V12.6186C0 15.5876 2.41237 17.9629 5.34433 17.9629H12.6186C15.5876 17.9629 17.9629 15.5505 17.9629 12.6186V5.34433C18 2.41237 15.5876 0 12.6186 0ZM16.1814 12.6186C16.1814 14.5856 14.5856 16.1814 12.6186 16.1814H5.34433C3.37732 16.1814 1.78144 14.5856 1.78144 12.6186V5.34433C1.78144 3.37732 3.37732 1.78144 5.34433 1.78144H12.6186C14.5856 1.78144 16.1814 3.37732 16.1814 5.34433V12.6186Z" fill="#5F5F5F"/>
<path d="M8.98145 4.34228C6.42063 4.34228 4.34228 6.42063 4.34228 8.98145C4.34228 11.5423 6.42063 13.6206 8.98145 13.6206C11.5423 13.6206 13.6206 11.5423 13.6206 8.98145C13.6206 6.42063 11.5423 4.34228 8.98145 4.34228ZM8.98145 11.8392C7.42269 11.8392 6.12372 10.5773 6.12372 8.98145C6.12372 7.38558 7.38558 6.12372 8.98145 6.12372C10.5402 6.12372 11.8392 7.38558 11.8392 8.98145C11.8392 10.5773 10.5773 11.8392 8.98145 11.8392Z" fill="#5F5F5F"/>
<path d="M13.6577 5.49277C14.2726 5.49277 14.7711 4.99429 14.7711 4.37937C14.7711 3.76446 14.2726 3.26597 13.6577 3.26597C13.0428 3.26597 12.5443 3.76446 12.5443 4.37937C12.5443 4.99429 13.0428 5.49277 13.6577 5.49277Z" fill="#5F5F5F"/>
</svg>
