<svg width="131" height="31" viewBox="0 0 131 31" fill="none" xmlns="http://www.w3.org/2000/svg">
<g clip-path="url(#clip0)">
<path d="M18.805 3.40011C20.6458 4.24614 22.074 5.44336 23.0738 6.9758C24.0735 8.5242 24.5655 10.3599 24.5655 12.467C24.5655 14.5582 24.0577 16.378 23.0738 17.9423C22.074 19.5067 20.6458 20.7039 18.805 21.518C16.9483 22.3481 14.7742 22.7631 12.2669 22.7631H6.55397V30.6488H0V2.13904H12.2669C14.7742 2.13904 16.9483 2.55407 18.805 3.40011ZM16.3929 16.1226C17.4243 15.2606 17.9322 14.0474 17.9322 12.483C17.9322 10.8867 17.4243 9.65757 16.3929 8.79557C15.3614 7.93358 13.8697 7.51854 11.9019 7.51854H6.55397V17.4155H11.9019C13.8697 17.4155 15.3772 16.9845 16.3929 16.1226Z" fill="#2C2C2C"/>
<path d="M32.262 2.13904H38.816V30.6488H32.262V2.13904Z" fill="#2C2C2C"/>
<path d="M48.5756 2.13904H55.1296V25.2693H69.3483V30.6488H48.5756V2.13904Z" fill="#2C2C2C"/>
<path d="M115.385 7.51854H106.323V2.13904H131.016V7.51854H121.955V30.6488H115.401V7.51854H115.385Z" fill="#2C2C2C"/>
<path d="M90.7415 18.261C92.2598 16.7337 92.2598 14.2575 90.7415 12.7302C89.2232 11.2029 86.7615 11.2029 85.2432 12.7302C83.7249 14.2575 83.7249 16.7337 85.2432 18.261C86.7615 19.7883 89.2232 19.7883 90.7415 18.261Z" fill="#2C2C2C"/>
<path d="M103.213 12.7544L94.501 21.8852C94.4693 21.9171 94.4534 21.949 94.4217 21.965C90.8829 25.5247 85.1065 25.5247 81.5676 21.965C80.7901 21.1828 80.187 20.3049 79.7427 19.3471L75.1089 24.0083C75.6802 24.8702 76.3308 25.7003 77.0925 26.4506C83.107 32.5005 92.8665 32.5005 98.8809 26.4506C102.499 22.827 103.943 17.4794 103.213 12.7544Z" fill="#6BCD5B"/>
<path d="M81.5517 9.03501C85.0905 5.47528 90.8669 5.47528 94.4057 9.03501C95.1833 9.81719 95.7863 10.6952 96.2148 11.6529L100.849 6.62461C100.277 5.76261 99.6267 5.29968 98.8649 4.54943C92.8505 -1.50052 83.091 -1.50052 77.0766 4.54943C73.4743 8.17301 72.0461 13.1694 72.7602 17.8785L81.5517 9.03501Z" fill="#6BCD5B"/>
</g>
<defs>
<clipPath id="clip0">
<rect width="131" height="31" fill="white"/>
</clipPath>
</defs>
</svg>
