<svg width="131" height="31" viewBox="0 0 131 31" fill="none" xmlns="http://www.w3.org/2000/svg">
<g clip-path="url(#clip0)">
<path d="M18.805 3.40023C20.6458 4.24627 22.074 5.44348 23.0738 6.97592C24.0735 8.52433 24.5655 10.3601 24.5655 12.4672C24.5655 14.5583 24.0577 16.3781 23.0738 17.9425C22.074 19.5068 20.6458 20.704 18.805 21.5181C16.9483 22.3482 14.7742 22.7633 12.2669 22.7633H6.55397V30.6489H0V2.13916H12.2669C14.7742 2.13916 16.9483 2.5542 18.805 3.40023ZM16.3929 16.1227C17.4243 15.2607 17.9322 14.0475 17.9322 12.4831C17.9322 10.8868 17.4243 9.65769 16.3929 8.7957C15.3614 7.9337 13.8697 7.51866 11.9019 7.51866H6.55397V17.4157H11.9019C13.8697 17.4157 15.3772 16.9847 16.3929 16.1227Z" fill="white"/>
<path d="M32.262 2.13916H38.8159V30.6489H32.262V2.13916Z" fill="white"/>
<path d="M48.5754 2.13916H55.1294V25.2694H69.3482V30.6489H48.5754V2.13916Z" fill="white"/>
<path d="M115.385 7.51866H106.323V2.13916H131.016V7.51866H121.955V30.6489H115.401V7.51866H115.385Z" fill="white"/>
<path d="M90.7414 18.261C92.2597 16.7337 92.2597 14.2575 90.7414 12.7302C89.2231 11.2029 86.7614 11.2029 85.2431 12.7302C83.7247 14.2575 83.7247 16.7337 85.2431 18.261C86.7614 19.7883 89.2231 19.7883 90.7414 18.261Z" fill="white"/>
<path d="M103.213 12.7544L94.501 21.8852C94.4693 21.9171 94.4534 21.949 94.4217 21.965C90.8828 25.5247 85.1065 25.5247 81.5676 21.965C80.7901 21.1828 80.187 20.3049 79.7427 19.3471L75.1089 24.0083C75.6802 24.8703 76.3308 25.7003 77.0925 26.4506C83.107 32.5005 92.8665 32.5005 98.8809 26.4506C102.499 22.827 103.943 17.4794 103.213 12.7544Z" fill="#00C8B9"/>
<path d="M81.5517 9.03525C85.0905 5.47552 90.8669 5.47552 94.4057 9.03525C95.1833 9.81744 95.7863 10.6954 96.2148 11.6532L100.849 6.62485C100.277 5.76285 99.6267 5.29993 98.8649 4.54967C92.8505 -1.50028 83.091 -1.50028 77.0766 4.54967C73.4743 8.17325 72.0461 13.1697 72.7602 17.8787L81.5517 9.03525Z" fill="#00C8B9"/>
</g>
<defs>
<clipPath id="clip0">
<rect width="131" height="31" fill="white"/>
</clipPath>
</defs>
</svg>
