<svg width="113" height="27" viewBox="0 0 113 27" fill="none" xmlns="http://www.w3.org/2000/svg">
<path d="M16.8634 2.94523C18.4408 3.67814 19.6646 4.71528 20.5212 6.04281C21.3779 7.38417 21.7994 8.97444 21.7994 10.7998C21.7994 12.6113 21.3643 14.1878 20.5212 15.543C19.6646 16.8982 18.4408 17.9353 16.8634 18.6405C15.2725 19.3596 13.4096 19.7192 11.2611 19.7192H6.3659V26.5504H0.75V1.85278H11.2611C13.4096 1.85278 15.2725 2.21232 16.8634 2.94523ZM14.7965 13.9665C15.6804 13.2198 16.1155 12.1688 16.1155 10.8136C16.1155 9.43078 15.6804 8.36599 14.7965 7.61925C13.9127 6.87251 12.6345 6.51297 10.9484 6.51297H6.3659V15.0866H10.9484C12.6345 15.0866 13.9263 14.7133 14.7965 13.9665Z" fill="#2C2C2C"/>
<path d="M28.3943 1.85278H34.0102V26.5504H28.3943V1.85278Z" fill="#2C2C2C"/>
<path d="M42.373 1.85278H47.9889V21.8902H60.1726V26.5504H42.373V1.85278Z" fill="#2C2C2C"/>
<path d="M99.6198 6.51297H91.8555V1.85278H113.014V6.51297H105.249V26.5504H99.6334V6.51297H99.6198Z" fill="#2C2C2C"/>
<path d="M78.5035 15.8192C79.8045 14.4961 79.8045 12.351 78.5035 11.0279C77.2025 9.70487 75.0932 9.70487 73.7922 11.0279C72.4912 12.351 72.4912 14.4961 73.7922 15.8192C75.0932 17.1423 77.2025 17.1423 78.5035 15.8192Z" fill="#2C2C2C"/>
<path d="M89.1901 11.0488L81.7249 18.9587C81.6977 18.9864 81.6841 19.014 81.6569 19.0279C78.6246 22.1116 73.675 22.1116 70.6427 19.0279C69.9764 18.3503 69.4597 17.5897 69.079 16.76L65.1084 20.7979C65.5979 21.5446 66.1554 22.2637 66.8081 22.9136C71.9617 28.1546 80.3244 28.1546 85.4779 22.9136C88.5782 19.7746 89.8156 15.1421 89.1901 11.0488Z" fill="#5DDFD5"/>
<path d="M70.6292 7.8268C73.6615 4.74305 78.6111 4.74305 81.6434 7.8268C82.3097 8.50439 82.8264 9.26496 83.1935 10.0947L87.1641 5.7387C86.6746 4.99196 86.1171 4.59093 85.4644 3.941C80.3108 -1.29999 71.9481 -1.29999 66.7946 3.941C63.7079 7.08006 62.4841 11.4084 63.096 15.4878L70.6292 7.8268Z" fill="#5DDFD5"/>
</svg>
