<svg width="28" height="22" viewBox="0 0 28 22" fill="none" xmlns="http://www.w3.org/2000/svg">
<path fill-rule="evenodd" clip-rule="evenodd" d="M8.58885 1.5136C8.63731 1.52483 8.68536 1.53709 8.73299 1.55039C10.7329 1.97957 15.0205 3.45576 16.6546 6.05164C16.8938 6.43172 17.1082 6.7738 17.3011 7.08181C18.7724 9.43014 19.0033 9.7987 19.586 9.93363C19.8135 9.98632 20.14 9.86454 20.4751 9.67509C20.9972 8.45431 22.334 7.74537 23.6727 8.05539C25.1756 8.40343 26.1118 9.90392 25.7637 11.4068C25.5755 12.2195 25.0504 12.8665 24.37 13.2343C24.8192 13.8637 25.0064 14.6754 24.8182 15.4879C24.4702 16.9908 22.9697 17.927 21.4668 17.579C20.2589 17.2993 19.4171 16.2752 19.3138 15.1038C19.0781 14.7376 18.8106 14.4326 18.5581 14.3741C17.9755 14.2392 17.6061 14.4688 15.2523 15.9313L15.2517 15.9316L15.2505 15.9324C14.9422 16.1239 14.5999 16.3366 14.2187 16.5724C11.5834 18.2021 7.01827 17.6153 5.06514 17.1182L5.07914 17.1065C5.04694 17.1001 5.01478 17.0931 4.98265 17.0857C2.23278 16.4489 0.810837 12.4467 1.80666 8.14658C2.80249 3.84647 5.83898 0.876784 8.58885 1.5136ZM8.08252 3.50685C9.79676 3.90384 10.5912 6.79599 9.85693 9.96666C9.12266 13.1373 7.13775 15.3858 5.4235 14.9889C3.70925 14.5919 2.91482 11.6997 3.64909 8.52905C4.38336 5.35838 6.36827 3.10986 8.08252 3.50685ZM7.83715 9.56192C8.05465 8.6227 7.72338 7.74376 7.09724 7.59876C6.47109 7.45376 5.78717 8.0976 5.56967 9.03682C5.35216 9.97604 5.68343 10.855 6.30958 11C6.93572 11.145 7.61964 10.5011 7.83715 9.56192Z" fill="#BF5F41"/>
</svg>
