<svg width="26" height="26" viewBox="0 0 26 26" fill="none" xmlns="http://www.w3.org/2000/svg">
<path d="M14.3593 7.54945C14.3593 9.20072 12.9852 10.5393 12.9852 10.5393C12.9852 10.5393 11.6111 9.20072 11.6111 7.54945C11.6111 5.89819 12.9852 4.55957 12.9852 4.55957C12.9852 4.55957 14.3593 5.89819 14.3593 7.54945Z" fill="#FF9C00"/>
<path d="M11.7501 10.3821C12.9039 11.5497 12.8675 13.4796 12.8675 13.4796C12.8675 13.4796 10.9605 13.5164 9.8068 12.3488C8.65305 11.1812 8.6894 9.25129 8.6894 9.25129C8.6894 9.25129 10.5963 9.2145 11.7501 10.3821Z" fill="#FF9C00"/>
<path d="M11.7501 14.415C12.9039 15.5826 12.8675 17.5125 12.8675 17.5125C12.8675 17.5125 10.9605 17.5493 9.8068 16.3817C8.65305 15.214 8.6894 13.2842 8.6894 13.2842C8.6894 13.2842 10.5963 13.2474 11.7501 14.415Z" fill="#FF9C00"/>
<path d="M11.7501 18.3551C12.9039 19.5228 12.8675 21.4526 12.8675 21.4526C12.8675 21.4526 10.9605 21.4894 9.8068 20.3218C8.65305 19.1542 8.6894 17.2243 8.6894 17.2243C8.6894 17.2243 10.5963 17.1875 11.7501 18.3551Z" fill="#FF9C00"/>
<path d="M14.2498 10.3821C13.096 11.5497 13.1324 13.4796 13.1324 13.4796C13.1324 13.4796 15.0393 13.5164 16.1931 12.3488C17.3469 11.1812 17.3105 9.25129 17.3105 9.25129C17.3105 9.25129 15.4035 9.2145 14.2498 10.3821Z" fill="#FF9C00"/>
<path d="M14.2498 14.415C13.096 15.5826 13.1324 17.5125 13.1324 17.5125C13.1324 17.5125 15.0393 17.5493 16.1931 16.3817C17.3469 15.214 17.3105 13.2842 17.3105 13.2842C17.3105 13.2842 15.4035 13.2474 14.2498 14.415Z" fill="#FF9C00"/>
<path d="M14.2498 18.3551C13.096 19.5228 13.1324 21.4526 13.1324 21.4526C13.1324 21.4526 15.0393 21.4894 16.1931 20.3218C17.3469 19.1542 17.3105 17.2243 17.3105 17.2243C17.3105 17.2243 15.4035 17.1875 14.2498 18.3551Z" fill="#FF9C00"/>
<path d="M4.61159 21.4528L21.5048 4.55959M25 12.948C25 19.5754 19.6274 24.948 13 24.948C6.37258 24.948 1 19.5754 1 12.948C1 6.32058 6.37258 0.947998 13 0.947998C19.6274 0.947998 25 6.32058 25 12.948Z" stroke="#A6A6A6"/>
</svg>
