<svg width="27" height="23" viewBox="0 0 27 23" fill="none" xmlns="http://www.w3.org/2000/svg">
<path d="M14.6946 4.01005C14.6946 6.1605 12.905 7.90378 12.905 7.90378C12.905 7.90378 11.1155 6.1605 11.1155 4.01005C11.1155 1.85961 12.905 0.116333 12.905 0.116333C12.905 0.116333 14.6946 1.85961 14.6946 4.01005Z" fill="#5F5F5F"/>
<path d="M11.2965 7.69904C12.7991 9.21963 12.7517 11.7329 12.7517 11.7329C12.7517 11.7329 10.2683 11.7808 8.76578 10.2602C7.26325 8.73963 7.31059 6.22636 7.31059 6.22636C7.31059 6.22636 9.79401 6.17845 11.2965 7.69904Z" fill="#5F5F5F"/>
<path d="M11.2965 12.951C12.7991 14.4716 12.7517 16.9849 12.7517 16.9849C12.7517 16.9849 10.2683 17.0328 8.76578 15.5122C7.26325 13.9916 7.31059 11.4784 7.31059 11.4784C7.31059 11.4784 9.79401 11.4304 11.2965 12.951Z" fill="#5F5F5F"/>
<path d="M11.2965 18.0823C12.7991 19.6029 12.7517 22.1162 12.7517 22.1162C12.7517 22.1162 10.2683 22.1641 8.76578 20.6435C7.26325 19.1229 7.31059 16.6096 7.31059 16.6096C7.31059 16.6096 9.79401 16.5617 11.2965 18.0823Z" fill="#5F5F5F"/>
<path d="M14.5519 7.69904C13.0494 9.21963 13.0967 11.7329 13.0967 11.7329C13.0967 11.7329 15.5801 11.7808 17.0827 10.2602C18.5852 8.73963 18.5378 6.22636 18.5378 6.22636C18.5378 6.22636 16.0544 6.17845 14.5519 7.69904Z" fill="#5F5F5F"/>
<path d="M14.5519 12.951C13.0494 14.4716 13.0967 16.9849 13.0967 16.9849C13.0967 16.9849 15.5801 17.0328 17.0827 15.5122C18.5852 13.9916 18.5378 11.4784 18.5378 11.4784C18.5378 11.4784 16.0544 11.4304 14.5519 12.951Z" fill="#5F5F5F"/>
<path d="M14.5519 18.0823C13.0494 19.6029 13.0967 22.1162 13.0967 22.1162C13.0967 22.1162 15.5801 22.1641 17.0827 20.6435C18.5852 19.1229 18.5378 16.6096 18.5378 16.6096C18.5378 16.6096 16.0544 16.5617 14.5519 18.0823Z" fill="#5F5F5F"/>
<path d="M0.999988 19.4062L25.686 4.37783" stroke="white" stroke-width="2"/>
<path d="M0.999988 19.4062L25.686 4.37783" stroke="black"/>
</svg>
