<svg width="24" height="25" viewBox="0 0 24 25" fill="none" xmlns="http://www.w3.org/2000/svg">
<path d="M1.82612 22.4456C0.576613 22.6424 0 23.9456 0.826149 24.9455C1.00013 24.9456 0.867642 24.3456 1.82609 23.9456C3.26533 23.3449 4.79987 24.1018 7.32609 24.4456C11 24.9456 13.8261 24.4456 18.8261 19.9455C23.8261 15.4454 22.3261 10.4455 22.3261 9.44549C22.3261 8.44549 18.8261 7.44549 16.8261 7.94549C14.8261 8.44549 15.7249 10.6048 15.4062 12.0706C15.0802 13.5706 14.7812 15.2581 13.7812 16.7581C12.7812 18.2581 12 19.7789 10 20.4456C7.32609 21.3369 5.00013 21.9456 1.82612 22.4456Z" fill="#E52828"/>
<path d="M7.6787 21.7219C7.09949 21.8675 6.01807 21.8517 5.53125 22.1642C5.83044 22.5186 8.4375 22.3206 9.75 21.9143C11.0625 21.5081 14.0275 20.5524 15.9062 17.5392C17.785 14.526 19 9.82062 19 9.82062C18.5361 8.75006 18.1094 9.39873 17.5469 9.17992C16.8577 8.91186 16.949 8.68521 16.5312 8.85177C15.6041 9.22141 16.3438 9.82062 16.1562 11.4768C16.0315 12.5789 15.7812 14.9455 13.9689 17.5392C12.122 20.1824 10.9051 20.9112 7.6787 21.7219Z" fill="#FF7373"/>
<path d="M18.1875 5.99674C17.4 6.22174 16.6719 7.51757 16.4062 8.13736C16.5885 8.25192 17.0781 8.50603 17.5781 8.60603C18.2031 8.73103 18.4844 8.44978 19 8.48103C19.5156 8.51228 19.7031 8.79353 20.1562 8.87166C20.6094 8.94978 21.2656 8.87166 21.4531 8.68416C21.6406 8.49666 20.9062 6.66853 20.6562 6.29353C20.4062 5.91853 20.2188 5.63728 20.1562 5.32478C20.0938 5.01228 20.5469 3.74666 20.75 3.23103C20.9531 2.71541 21.4531 1.80905 21.8125 1.76228C22.1719 1.71552 22.3281 2.43409 22.6875 2.48103C22.8428 2.50132 22.9789 1.24955 22.7695 1.19555C22.2852 1.07063 21.9844 0.793801 21.2656 1.05924C20.5469 1.32467 19.724 3.53319 19.3438 4.74674C19.2865 5.06965 18.975 5.77174 18.1875 5.99674Z" fill="#80AB51"/>
<path d="M22.461 1.5979C22.3047 1.7854 22.3592 2.19806 22.4608 2.36733C22.5311 2.48453 22.6606 2.50199 22.7654 2.48453C22.9295 2.45719 23.0556 2.25267 23.0662 2.21891C23.1638 1.90641 23.1873 1.75406 23.0896 1.50797C22.992 1.26187 22.8357 1.21731 22.7888 1.19543C22.7303 1.16809 22.6563 1.36353 22.461 1.5979Z" fill="#6A8A37"/>
<path d="M20.5312 6.57056C20.294 6.27267 19.875 4.87545 19.7812 5.21133C19.7812 5.21133 19.8203 6.32847 19.7812 6.89878C19.7422 7.46909 19.4688 8.6019 19.4688 8.6019C19.4688 8.6019 19.8281 8.87534 20.4688 8.92222C21.1094 8.96909 21.2812 8.75815 21.2812 8.75815C21.2266 8.15649 20.8672 6.99243 20.5312 6.57056Z" fill="#6A8A37"/>
</svg>
