<svg width="18" height="14" viewBox="0 0 18 14" fill="none" xmlns="http://www.w3.org/2000/svg">
<path d="M16.1508 3.48822C16.1613 3.63973 16.1613 3.79461 16.1613 3.94613C16.1613 8.61616 12.4488 14 5.66367 14C3.57188 14 1.63125 13.4209 0 12.4141C0.295312 12.4478 0.583594 12.4579 0.889453 12.4579C2.61562 12.4579 4.20117 11.899 5.47031 10.9495C3.84961 10.9158 2.48906 9.89899 2.02148 8.49832C2.25 8.53199 2.47852 8.55219 2.71758 8.55219C3.04805 8.55219 3.37852 8.50842 3.68789 8.43098C1.99688 8.10438 0.73125 6.68013 0.73125 4.96296V4.91919C1.22344 5.18182 1.79297 5.3468 2.39766 5.367C1.40273 4.73401 0.752344 3.64983 0.752344 2.42424C0.752344 1.76768 0.935156 1.16498 1.25508 0.639731C3.07266 2.78788 5.80078 4.18855 8.86289 4.34343C8.80664 4.08081 8.77148 3.80808 8.77148 3.53535C8.77148 1.58586 10.4168 0 12.4594 0C13.5211 0 14.4809 0.427609 15.1559 1.11448C15.9891 0.962963 16.7906 0.666667 17.4973 0.262626C17.223 1.08418 16.6395 1.77104 15.8766 2.20875C16.6184 2.13131 17.3391 1.93603 18 1.6633C17.4973 2.36364 16.868 2.98653 16.1508 3.48822Z" fill="#5F5F5F"/>
</svg>
