<svg width="32" height="32" viewBox="0 0 32 32" fill="none" xmlns="http://www.w3.org/2000/svg">
<circle cx="16" cy="16" r="16" fill="#1DA1F2"/>
<g clip-path="url(#clip0)">
<path d="M23.1508 12.4882C23.1613 12.6397 23.1613 12.7946 23.1613 12.9461C23.1613 17.6162 19.4488 23 12.6637 23C10.5719 23 8.63125 22.4209 7 21.4141C7.29531 21.4478 7.58359 21.4579 7.88945 21.4579C9.61562 21.4579 11.2012 20.899 12.4703 19.9495C10.8496 19.9158 9.48906 18.899 9.02148 17.4983C9.25 17.532 9.47852 17.5522 9.71758 17.5522C10.048 17.5522 10.3785 17.5084 10.6879 17.431C8.99688 17.1044 7.73125 15.6801 7.73125 13.963V13.9192C8.22344 14.1818 8.79297 14.3468 9.39766 14.367C8.40273 13.734 7.75234 12.6498 7.75234 11.4242C7.75234 10.7677 7.93516 10.165 8.25508 9.63973C10.0727 11.7879 12.8008 13.1886 15.8629 13.3434C15.8066 13.0808 15.7715 12.8081 15.7715 12.5354C15.7715 10.5859 17.4168 9 19.4594 9C20.5211 9 21.4809 9.42761 22.1559 10.1145C22.9891 9.96296 23.7906 9.66667 24.4973 9.26263C24.223 10.0842 23.6395 10.771 22.8766 11.2088C23.6184 11.1313 24.3391 10.936 25 10.6633C24.4973 11.3636 23.868 11.9865 23.1508 12.4882Z" fill="white"/>
</g>
<defs>
<clipPath id="clip0">
<rect width="18" height="14" fill="white" transform="translate(7 9)"/>
</clipPath>
</defs>
</svg>
