<svg width="14" height="14" viewBox="0 0 14 14" fill="none" xmlns="http://www.w3.org/2000/svg">
<path fill-rule="evenodd" clip-rule="evenodd" d="M7.33352 4.33317H6.33352V8.33317L9.50018 10.2332L10.0002 9.41317L7.33352 7.83317V4.33317ZM7.00018 1.6665C3.68685 1.6665 1.00018 4.35317 1.00018 7.6665C1.00018 10.9798 3.68685 13.6665 7.00018 13.6665C10.3135 13.6665 13.0002 10.9798 13.0002 7.6665C13.0002 4.35317 10.3135 1.6665 7.00018 1.6665ZM7.00018 12.3332C4.42685 12.3332 2.33352 10.2398 2.33352 7.6665C2.33352 5.09317 4.42685 2.99984 7.00018 2.99984C9.57352 2.99984 11.6669 5.09317 11.6669 7.6665C11.6669 10.2398 9.57352 12.3332 7.00018 12.3332Z" fill="#1D1D1D"/>
</svg>
